{
    "asset" : {
        "generator" : "Khronos glTF Blender I/O v1.5.17",
        "version" : "2.0"
    },
    "scene" : 0,
    "scenes" : [
        {
            "name" : "Scene",
            "nodes" : [
                0
            ]
        }
    ],
    "nodes" : [
        {
            "mesh" : 0,
            "name" : "FischerPriceRings"
        }
    ],
    "materials" : [
        {
            "doubleSided" : true,
            "name" : "Material",
            "pbrMetallicRoughness" : {}
        }
    ],
    "meshes" : [
        {
            "name" : "FischerPriceRings",
            "primitives" : [
                {
                    "attributes" : {
                        "POSITION" : 0,
                        "NORMAL" : 1
                    },
                    "indices" : 2,
                    "material" : 0
                }
            ]
        }
    ],
    "accessors" : [
        {
            "bufferView" : 0,
            "componentType" : 5126,
            "count" : 42781,
            "max" : [
                59.797889709472656,
                3.5999999046325684,
                59.797889709472656
            ],
            "min" : [
                -59.79999923706055,
                0,
                -59.79999923706055
            ],
            "type" : "VEC3"
        },
        {
            "bufferView" : 1,
            "componentType" : 5126,
            "count" : 42781,
            "type" : "VEC3"
        },
        {
            "bufferView" : 2,
            "componentType" : 5123,
            "count" : 48612,
            "type" : "SCALAR"
        }
    ],
    "bufferViews" : [
        {
            "buffer" : 0,
            "byteLength" : 513372,
            "byteOffset" : 0
        },
        {
            "buffer" : 0,
            "byteLength" : 513372,
            "byteOffset" : 513372
        },
        {
            "buffer" : 0,
            "byteLength" : 97224,
            "byteOffset" : 1026744
        }
    ],
    "buffers" : [
        {
            "byteLength" : 1123968,
            "uri" : "data:application/octet-stream;base64,"
        }
    ]
}
