<svg xmlns="http://www.w3.org/2000/svg" xmlns:xlink="http://www.w3.org/1999/xlink" version="1.1" x="0px" y="0px" viewBox="0 0 100 125" enable-background="new 0 0 100 100" xml:space="preserve"><path d="M95.336,50.355h0.577v24.426H4.025V50.355h0.613v21.519c0,0.169,0.137,0.305,0.306,0.305h5.064  c0.169,0,0.306-0.136,0.306-0.305v-8.229H8.87v-13.29h3.293v13.29H10.72v8.229c0,0.169,0.136,0.305,0.305,0.305h5.065  c0.168,0,0.306-0.136,0.306-0.305v-8.229H14.96v-13.29h3.194v13.29h-1.443v8.229c0,0.169,0.137,0.305,0.305,0.305h5.065  c0.168,0,0.305-0.136,0.305-0.305V50.355h0.423v21.519c0,0.169,0.137,0.305,0.305,0.305h5.065c0.168,0,0.305-0.136,0.305-0.305  v-8.229h-1.443v-13.29h3.292v13.29h-1.443v8.229c0,0.169,0.137,0.305,0.305,0.305h5.065c0.169,0,0.305-0.136,0.305-0.305v-8.229  h-1.437v-13.29h3.287v13.29h-1.443v8.229c0,0.169,0.137,0.305,0.306,0.305h5.064c0.169,0,0.306-0.136,0.306-0.305v-8.229h-1.436  v-13.29h3.286v13.29h-1.443v8.229c0,0.169,0.137,0.305,0.305,0.305h5.065c0.168,0,0.305-0.136,0.305-0.305V50.355h0.423v21.519  c0,0.169,0.137,0.305,0.305,0.305h5.065c0.169,0,0.307-0.136,0.307-0.305v-8.229H51.39v-13.29h3.293v13.29H53.24v8.229  c0,0.169,0.136,0.305,0.305,0.305h5.065c0.169,0,0.306-0.136,0.306-0.305v-8.229h-1.437v-13.29h3.193v13.29H59.23v8.229  c0,0.169,0.138,0.305,0.307,0.305h5.064c0.168,0,0.305-0.136,0.305-0.305V50.355h0.424v21.519c0,0.169,0.137,0.305,0.305,0.305H70.7  c0.169,0,0.306-0.136,0.306-0.305v-8.229h-1.442v-13.29h3.292v13.29h-1.443v8.229c0,0.169,0.138,0.305,0.306,0.305h5.065  c0.169,0,0.305-0.136,0.305-0.305v-8.229h-1.436v-13.29h3.285v13.29h-1.442v8.229c0,0.169,0.138,0.305,0.306,0.305h5.064  c0.169,0,0.306-0.136,0.306-0.305v-8.229h-1.436v-13.29h3.285v13.29h-1.442v8.229c0,0.169,0.136,0.305,0.306,0.305h5.064  c0.169,0,0.306-0.136,0.306-0.305V50.355h0.406v13.29v8.229c0,0.169,0.138,0.305,0.307,0.305h5.064c0.168,0,0.305-0.136,0.305-0.305  V50.355z M15.775,42.785h-3.607c-0.087,0-0.159,0.071-0.159,0.158v1.794c0,0.088,0.071,0.159,0.159,0.159h3.607  c0.087,0,0.159-0.071,0.159-0.159v-1.794C15.934,42.856,15.863,42.785,15.775,42.785z M79.741,42.785h-3.607  c-0.087,0-0.159,0.071-0.159,0.158v1.794c0,0.088,0.072,0.159,0.159,0.159h3.607c0.087,0,0.158-0.071,0.158-0.159v-1.794  C79.899,42.856,79.828,42.785,79.741,42.785z M9.731,34.689H6.124c-0.087,0-0.159,0.07-0.159,0.158v1.794  c0,0.087,0.071,0.158,0.159,0.158h3.607c0.087,0,0.158-0.071,0.158-0.158v-1.794C9.889,34.76,9.819,34.689,9.731,34.689z   M12.035,31.021c-0.979,0.685-2.332,0.447-3.017-0.532c-0.685-0.978-0.446-2.332,0.532-3.017c0.979-0.686,2.332-0.447,3.017,0.532  S13.013,30.336,12.035,31.021z M12.01,28.395c-0.267-0.381-0.681-0.599-1.112-0.629l0.001,1.482c0,0.037-0.018,0.068-0.045,0.088  c-0.018,0.012-0.039,0.02-0.062,0.02c-0.059,0-0.107-0.048-0.107-0.107l-0.001-1.481c-0.259,0.02-0.516,0.104-0.744,0.264  C9.267,28.5,9.103,29.428,9.574,30.1s1.398,0.836,2.07,0.365C12.318,29.994,12.481,29.067,12.01,28.395z M75.061,28.632  c0,1.013-0.823,1.837-1.838,1.837c-1.013,0-1.838-0.824-1.838-1.837c0-1.014,0.825-1.838,1.838-1.838  C74.238,26.793,75.061,27.618,75.061,28.632z M74.486,28.631c0-0.696-0.565-1.261-1.263-1.261c-0.395,0-0.747,0.182-0.979,0.466  l1.032,0.721c0.025,0.017,0.038,0.045,0.038,0.074c0,0.018-0.005,0.036-0.016,0.052c-0.028,0.042-0.086,0.051-0.127,0.022  l-1.03-0.72c-0.112,0.188-0.179,0.41-0.179,0.646c0,0.697,0.564,1.261,1.261,1.261C73.921,29.893,74.486,29.328,74.486,28.631z   M72.889,42.785h-3.607c-0.086,0-0.158,0.071-0.158,0.158v1.794c0,0.088,0.072,0.159,0.158,0.159h3.607  c0.087,0,0.158-0.071,0.158-0.159v-1.794C73.048,42.856,72.976,42.785,72.889,42.785z M66.038,42.785H62.43  c-0.088,0-0.158,0.071-0.158,0.158v1.794c0,0.088,0.07,0.159,0.158,0.159h3.607c0.088,0,0.158-0.071,0.158-0.159v-1.794  C66.196,42.856,66.126,42.785,66.038,42.785z M15.775,34.689h-3.607c-0.087,0-0.159,0.07-0.159,0.158v1.794  c0,0.087,0.071,0.158,0.159,0.158h3.607c0.087,0,0.159-0.071,0.159-0.158v-1.794C15.934,34.76,15.863,34.689,15.775,34.689z   M84.206,37.597c0,1.013-0.824,1.838-1.839,1.838c-1.013,0-1.837-0.825-1.837-1.838c0-1.014,0.824-1.838,1.837-1.838  C83.382,35.758,84.206,36.583,84.206,37.597z M83.629,37.597c0-0.697-0.564-1.262-1.262-1.262c-0.395,0-0.747,0.182-0.978,0.466  l1.03,0.721c0.025,0.018,0.039,0.045,0.039,0.075c0,0.018-0.005,0.036-0.017,0.052c-0.029,0.041-0.085,0.051-0.127,0.021l-1.03-0.72  c-0.112,0.189-0.179,0.409-0.179,0.646c0,0.696,0.563,1.261,1.261,1.261C83.064,38.857,83.629,38.293,83.629,37.597z M75.061,37.597  c0,1.013-0.823,1.838-1.838,1.838c-1.013,0-1.838-0.825-1.838-1.838c0-1.014,0.825-1.838,1.838-1.838  C74.238,35.758,75.061,36.583,75.061,37.597z M74.486,37.597c0-0.396-0.183-0.748-0.467-0.979l-0.721,1.031  c-0.018,0.025-0.046,0.039-0.075,0.039c-0.018,0-0.036-0.005-0.052-0.017c-0.041-0.028-0.051-0.085-0.022-0.126l0.721-1.03  c-0.189-0.113-0.409-0.179-0.646-0.179c-0.696,0-1.261,0.565-1.261,1.262c0,0.696,0.564,1.261,1.261,1.261  S74.486,38.293,74.486,37.597z M15.775,38.737h-3.607c-0.087,0-0.159,0.071-0.159,0.158v1.794c0,0.087,0.071,0.159,0.159,0.159  h3.607c0.087,0,0.159-0.071,0.159-0.159v-1.794C15.934,38.808,15.863,38.737,15.775,38.737z M9.731,38.737H6.124  c-0.087,0-0.159,0.071-0.159,0.158v1.794c0,0.087,0.071,0.159,0.159,0.159h3.607c0.087,0,0.158-0.071,0.158-0.159v-1.794  C9.889,38.808,9.819,38.737,9.731,38.737z M93.306,37.597c0,1.013-0.824,1.838-1.837,1.838c-1.014,0-1.838-0.825-1.838-1.838  c0-1.014,0.824-1.838,1.838-1.838C92.482,35.758,93.306,36.583,93.306,37.597z M92.73,37.597c0-0.396-0.182-0.748-0.467-0.979  l-0.72,1.031c-0.018,0.025-0.046,0.039-0.074,0.039c-0.019,0-0.037-0.005-0.053-0.017c-0.041-0.028-0.051-0.085-0.022-0.126  l0.721-1.03c-0.189-0.113-0.409-0.179-0.646-0.179c-0.697,0-1.262,0.565-1.262,1.262c0,0.696,0.564,1.261,1.262,1.261  C92.166,38.857,92.73,38.293,92.73,37.597z M62.396,28.632c0-1.014,0.824-1.838,1.838-1.838s1.838,0.825,1.838,1.838  c0,1.013-0.824,1.837-1.838,1.837S62.396,29.645,62.396,28.632z M62.972,28.632c0,0.696,0.564,1.261,1.262,1.261  s1.261-0.564,1.261-1.261c0-0.396-0.181-0.748-0.466-0.979l-0.72,1.031c-0.019,0.025-0.047,0.039-0.075,0.039  c-0.018,0-0.036-0.005-0.053-0.017c-0.041-0.029-0.051-0.085-0.021-0.127l0.72-1.029c-0.188-0.113-0.409-0.18-0.646-0.18  C63.537,27.37,62.972,27.935,62.972,28.632z M98.017,25.18v47.603c0,1.021-0.765,1.862-1.752,1.983V50.003H3.672v24.755  c-0.957-0.148-1.689-0.976-1.689-1.976V25.18c0-1.104,0.895-1.999,1.999-1.999h92.038C97.123,23.181,98.017,24.076,98.017,25.18z   M61.942,28.632c0,1.264,1.028,2.292,2.292,2.292c1.265,0,2.292-1.028,2.292-2.292c0-1.264-1.027-2.292-2.292-2.292  C62.97,26.339,61.942,27.368,61.942,28.632z M61.942,37.597c0,1.264,1.028,2.292,2.292,2.292c1.265,0,2.292-1.029,2.292-2.292  c0-1.264-1.027-2.292-2.292-2.292C62.97,35.305,61.942,36.333,61.942,37.597z M10.242,42.943c0-0.281-0.229-0.511-0.511-0.511H6.124  c-0.282,0-0.511,0.23-0.511,0.511v1.794c0,0.282,0.229,0.511,0.511,0.511h3.607c0.282,0,0.511-0.229,0.511-0.511V42.943z   M10.242,38.896c0-0.282-0.229-0.511-0.511-0.511H6.124c-0.282,0-0.511,0.229-0.511,0.511v1.794c0,0.282,0.229,0.511,0.511,0.511  h3.607c0.282,0,0.511-0.229,0.511-0.511V38.896z M10.242,34.848c0-0.282-0.229-0.511-0.511-0.511H6.124  c-0.282,0-0.511,0.229-0.511,0.511v1.794c0,0.282,0.229,0.511,0.511,0.511h3.607c0.282,0,0.511-0.229,0.511-0.511V34.848z   M12.342,31.46c1.22-0.854,1.518-2.542,0.664-3.762c-0.854-1.22-2.542-1.518-3.762-0.663c-1.22,0.854-1.518,2.542-0.664,3.762  C9.434,32.017,11.122,32.314,12.342,31.46z M16.286,42.943c0-0.281-0.229-0.511-0.511-0.511h-3.607c-0.282,0-0.511,0.23-0.511,0.511  v1.794c0,0.282,0.229,0.511,0.511,0.511h3.607c0.282,0,0.511-0.229,0.511-0.511V42.943z M16.286,38.896  c0-0.282-0.229-0.511-0.511-0.511h-3.607c-0.282,0-0.511,0.229-0.511,0.511v1.794c0,0.282,0.229,0.511,0.511,0.511h3.607  c0.282,0,0.511-0.229,0.511-0.511V38.896z M16.286,34.848c0-0.282-0.229-0.511-0.511-0.511h-3.607c-0.282,0-0.511,0.229-0.511,0.511  v1.794c0,0.282,0.229,0.511,0.511,0.511h3.607c0.282,0,0.511-0.229,0.511-0.511V34.848z M27.634,37.571  c0-0.426-0.346-0.773-0.773-0.773h-6.729c-0.427,0-0.772,0.347-0.772,0.773V44.3c0,0.427,0.346,0.772,0.772,0.772h6.729  c0.427,0,0.773-0.346,0.773-0.772V37.571z M27.634,27.112c0-0.426-0.346-0.772-0.773-0.772h-6.729c-0.427,0-0.772,0.346-0.772,0.772  v6.729c0,0.427,0.346,0.773,0.772,0.773h6.729c0.427,0,0.773-0.346,0.773-0.773V27.112z M37.984,37.571  c0-0.426-0.346-0.773-0.773-0.773h-6.729c-0.427,0-0.773,0.347-0.773,0.773V44.3c0,0.427,0.346,0.772,0.773,0.772h6.729  c0.427,0,0.773-0.346,0.773-0.772V37.571z M37.984,27.112c0-0.426-0.346-0.772-0.773-0.772h-6.729c-0.427,0-0.773,0.346-0.773,0.772  v6.729c0,0.427,0.346,0.773,0.773,0.773h6.729c0.427,0,0.773-0.346,0.773-0.773V27.112z M48.334,37.571  c0-0.426-0.346-0.773-0.772-0.773h-6.729c-0.427,0-0.773,0.347-0.773,0.773V44.3c0,0.427,0.346,0.772,0.773,0.772h6.729  c0.426,0,0.772-0.346,0.772-0.772V37.571z M48.334,27.112c0-0.426-0.346-0.772-0.772-0.772h-6.729c-0.427,0-0.773,0.346-0.773,0.772  v6.729c0,0.427,0.346,0.773,0.773,0.773h6.729c0.426,0,0.772-0.346,0.772-0.773V27.112z M58.684,37.571  c0-0.426-0.347-0.773-0.773-0.773h-6.729c-0.427,0-0.772,0.347-0.772,0.773V44.3c0,0.427,0.346,0.772,0.772,0.772h6.729  c0.427,0,0.773-0.346,0.773-0.772V37.571z M58.684,27.112c0-0.426-0.347-0.772-0.773-0.772h-6.729c-0.427,0-0.772,0.346-0.772,0.772  v6.729c0,0.427,0.346,0.773,0.772,0.773h6.729c0.427,0,0.773-0.346,0.773-0.773V27.112z M66.549,42.943  c0-0.281-0.229-0.511-0.511-0.511H62.43c-0.282,0-0.511,0.23-0.511,0.511v1.794c0,0.282,0.229,0.511,0.511,0.511h3.607  c0.281,0,0.511-0.229,0.511-0.511V42.943z M73.4,42.943c0-0.281-0.229-0.511-0.511-0.511h-3.607c-0.281,0-0.511,0.23-0.511,0.511  v1.794c0,0.282,0.229,0.511,0.511,0.511h3.607c0.281,0,0.511-0.229,0.511-0.511V42.943z M75.516,37.597  c0-1.264-1.029-2.292-2.293-2.292s-2.292,1.029-2.292,2.292c0,1.263,1.028,2.292,2.292,2.292S75.516,38.86,75.516,37.597z   M75.516,28.631c0-1.264-1.029-2.292-2.293-2.292s-2.292,1.028-2.292,2.292c0,1.264,1.028,2.292,2.292,2.292  C74.487,30.923,75.516,29.896,75.516,28.631z M80.252,42.943c0-0.281-0.229-0.511-0.511-0.511h-3.607  c-0.281,0-0.512,0.23-0.512,0.511v1.794c0,0.282,0.23,0.511,0.512,0.511h3.607c0.281,0,0.511-0.229,0.511-0.511V42.943z   M84.659,37.597c0-1.264-1.027-2.292-2.292-2.292c-1.264,0-2.291,1.028-2.291,2.292s1.027,2.292,2.291,2.292  C83.632,39.889,84.659,38.86,84.659,37.597z M84.659,28.632c0-1.264-1.026-2.292-2.292-2.292c-1.264,0-2.291,1.028-2.291,2.292  c0,1.264,1.027,2.292,2.291,2.292C83.633,30.924,84.659,29.896,84.659,28.632z M89.353,42.943c0-0.281-0.229-0.511-0.511-0.511  h-3.607c-0.281,0-0.511,0.23-0.511,0.511v1.794c0,0.282,0.229,0.511,0.511,0.511h3.607c0.281,0,0.511-0.229,0.511-0.511V42.943z   M93.761,37.597c0-1.264-1.028-2.292-2.292-2.292c-1.265,0-2.292,1.029-2.292,2.292c0,1.263,1.027,2.292,2.292,2.292  C92.733,39.889,93.761,38.86,93.761,37.597z M93.761,28.632c0-1.264-1.029-2.292-2.292-2.292c-1.265,0-2.292,1.028-2.292,2.292  c0,1.264,1.027,2.292,2.292,2.292C92.732,30.924,93.761,29.896,93.761,28.632z M93.306,28.632c0,1.013-0.824,1.837-1.837,1.837  c-1.014,0-1.838-0.824-1.838-1.837c0-1.014,0.824-1.838,1.838-1.838C92.482,26.793,93.306,27.618,93.306,28.632z M92.73,28.632  c0-0.697-0.564-1.262-1.261-1.262c-0.395,0-0.748,0.182-0.979,0.466l1.03,0.721c0.024,0.017,0.038,0.045,0.038,0.074  c0,0.018-0.005,0.036-0.016,0.052c-0.029,0.041-0.085,0.051-0.127,0.022l-1.03-0.72c-0.112,0.188-0.179,0.41-0.179,0.646  c0,0.696,0.564,1.261,1.262,1.261C92.166,29.893,92.73,29.328,92.73,28.632z M88.843,42.785h-3.607  c-0.088,0-0.158,0.071-0.158,0.158v1.794c0,0.088,0.07,0.159,0.158,0.159h3.607c0.087,0,0.157-0.071,0.157-0.159v-1.794  C89,42.856,88.929,42.785,88.843,42.785z M9.731,42.785H6.124c-0.087,0-0.159,0.071-0.159,0.158v1.794  c0,0.088,0.071,0.159,0.159,0.159h3.607c0.087,0,0.158-0.071,0.158-0.159v-1.794C9.889,42.856,9.819,42.785,9.731,42.785z   M84.206,28.632c0,1.013-0.824,1.837-1.839,1.837c-1.013,0-1.837-0.824-1.837-1.837c0-1.014,0.824-1.838,1.837-1.838  C83.382,26.793,84.206,27.618,84.206,28.632z M83.63,28.632c0-0.396-0.183-0.748-0.468-0.979l-0.719,1.031  c-0.019,0.025-0.047,0.039-0.076,0.039c-0.017,0-0.035-0.005-0.052-0.017c-0.041-0.029-0.051-0.085-0.022-0.127l0.721-1.029  c-0.188-0.113-0.409-0.18-0.646-0.18c-0.696,0-1.261,0.565-1.261,1.262c0,0.696,0.564,1.261,1.261,1.261  C83.064,29.893,83.63,29.328,83.63,28.632z M62.396,37.597c0-1.014,0.824-1.838,1.838-1.838c1.014,0,1.838,0.825,1.838,1.838  c0,1.013-0.824,1.838-1.838,1.838S62.396,38.61,62.396,37.597z M62.972,37.597c0,0.696,0.564,1.261,1.262,1.261  s1.261-0.564,1.261-1.261c0-0.697-0.563-1.262-1.261-1.262c-0.395,0-0.747,0.182-0.979,0.466l1.03,0.721  c0.024,0.018,0.04,0.045,0.04,0.075c0,0.018-0.006,0.036-0.017,0.052c-0.029,0.041-0.086,0.051-0.128,0.022l-1.029-0.72  C63.039,37.14,62.972,37.36,62.972,37.597z"/><text x="0" y="115" fill="#000000" font-size="5px" font-weight="bold" font-family="'Helvetica Neue', Helvetica, Arial-Unicode, Arial, Sans-serif">Created by Iconic</text><text x="0" y="120" fill="#000000" font-size="5px" font-weight="bold" font-family="'Helvetica Neue', Helvetica, Arial-Unicode, Arial, Sans-serif">from the Noun Project</text></svg>